# xmcd
#
# Track frame offsets: 
#        150
#        15904
#        39872
#        56174
#        80897
#        105234
#        127411
#        157248
#        181988
#        214960
#        239752
#        255809
#        271969
#        294726
#        319699
#
# Disc length: 4642 seconds
#
# Revision: 0
# Processed by: cddbd v1.5.2PL0 Copyright (c) Steve Scherf et al.
# Submitted via: ExactAudioCopy v0.99pb5
#
DISCID=d912200f
DTITLE=Dennis Glen Avila - The Blue Side Of My Soul
DYEAR=2009
DGENRE=Blues
TTITLE0=My Baby Loves The Blues
TTITLE1=Baby Don't Leave Me
TTITLE2=Girl By The Video Game
TTITLE3=Bad Luck, Snake Eyes Blues
TTITLE4=Some Day You'll Pay
TTITLE5=Going To Los Angeles
TTITLE6=Evil Man Blues
TTITLE7=Doing Good Blues
TTITLE8=Listen To Me
TTITLE9=Now That It's Over
TTITLE10=Too Drunk To Drive
TTITLE11=Walking Man Blues
TTITLE12=Don't Lie To Me
TTITLE13=Why I Play The Blues
TTITLE14=The Blue Side Of My Soul
EXTD=
EXTT0=
EXTT1=
EXTT2=
EXTT3=
EXTT4=
EXTT5=
EXTT6=
EXTT7=
EXTT8=
EXTT9=
EXTT10=
EXTT11=
EXTT12=
EXTT13=
EXTT14=
PLAYORDER=
